<svg width="80" height="80" viewBox="0 0 80 80" fill="none"
    xmlns="http://www.w3.org/2000/svg">
    <rect width="80" height="80" rx="40" fill="#FFEDEB"/>
    <rect x="15" y="15" width="50" height="50" rx="25" fill="#F7523E"/>
    <path fill-rule="evenodd" clip-rule="evenodd" d="M33.52 30.5671C32.7147 29.811 31.4092 29.811 30.6039 30.5671C29.7987 31.3232 29.7987 32.549 30.6039 33.3051L37.6659 39.9361L30.6039 46.567C29.7987 47.3231 29.7987 48.549 30.6039 49.3051C31.4092 50.0611 32.7147 50.0611 33.5199 49.3051L40.2542 42.9818L46.9884 49.3051C47.7937 50.0611 49.0992 50.0611 49.9044 49.3051C50.7097 48.549 50.7097 47.3231 49.9044 46.567L42.8425 39.9361L49.9045 33.3051C50.7097 32.549 50.7097 31.3232 49.9045 30.5671C49.0992 29.811 47.7937 29.811 46.9884 30.5671L40.2542 36.8903L33.52 30.5671Z" fill="white"/>
</svg>
    